<svg id="图层_1" data-name="图层 1" xmlns="http://www.w3.org/2000/svg" xmlns:xlink="http://www.w3.org/1999/xlink" viewBox="0 0 135.19 246.24"><defs><clipPath id="clip-path" transform="translate(-51.51 -276.08)"><path d="M156.93,422.4l-6.38-3.47a3.84,3.84,0,0,1-1.91-3.48l6.38,3.47A3.86,3.86,0,0,0,156.93,422.4Z" style="fill:none"/></clipPath><clipPath id="clip-path-2" transform="translate(-51.51 -276.08)"><path d="M155,389.26l6.38,3.48a3.5,3.5,0,0,0-2.19-.38l-6.39-3.47A3.53,3.53,0,0,1,155,389.26Z" style="fill:none"/></clipPath><clipPath id="clip-path-3" transform="translate(-51.51 -276.08)"><path d="M155.06,397.37l-6.38-3.47a5.1,5.1,0,0,1,4.11-5l6.39,3.47A5.1,5.1,0,0,0,155.06,397.37Z" style="fill:none"/></clipPath><clipPath id="clip-path-4" transform="translate(-51.51 -276.08)"><path d="M135.78,334.06l6.39,3.48a3.47,3.47,0,0,0-2.2-.38l-6.38-3.47A3.5,3.5,0,0,1,135.78,334.06Z" style="fill:none"/></clipPath><clipPath id="clip-path-5" transform="translate(-51.51 -276.08)"><path d="M117.79,348.45,111.41,345a3.82,3.82,0,0,1-1.9-3.48,5.09,5.09,0,0,1,4.11-5L120,340a5.09,5.09,0,0,0-4.12,5A3.82,3.82,0,0,0,117.79,348.45Z" style="fill:none"/></clipPath></defs><title>arduino</title><g style="isolation:isolate"><polygon points="2.28 245.72 0 244.48 0.42 18.34 2.7 19.58 2.28 245.72" style="fill:#005773"/><polygon points="2.7 19.58 0.42 18.34 130.93 0 133.21 1.24 2.7 19.58" style="fill:#006c8e"/><polygon points="133.21 1.24 132.78 227.38 2.28 245.72 2.7 19.58 133.21 1.24" style="fill:#007ca2"/></g><g style="isolation:isolate"><polygon points="35.47 52.98 20.42 44.8 20.49 8.01 35.54 16.19 35.47 52.98" style="fill:#b3b3b3"/><polygon points="35.54 16.19 20.49 8.01 43.17 4.82 58.21 13 35.54 16.19" style="fill:#e6e6e6"/><polygon points="58.21 13 58.15 49.8 35.47 52.98 35.54 16.19 58.21 13" style="fill:#d4d4d4"/></g><g style="isolation:isolate"><polygon points="16.41 246.24 7.75 241.53 8.04 87.49 16.7 92.2 16.41 246.24"/><polygon points="16.7 92.2 8.04 87.49 15.76 86.41 24.42 91.12 16.7 92.2"/><polygon points="24.42 91.12 24.14 245.15 16.41 246.24 16.7 92.2 24.42 91.12"/></g><g style="isolation:isolate"><polygon points="127.22 229.75 118.56 225.04 118.8 96.02 127.46 100.73 127.22 229.75"/><polygon points="127.46 100.73 118.8 96.02 126.53 94.94 135.19 99.65 127.46 100.73"/><polygon points="135.19 99.65 134.95 228.66 127.22 229.75 127.46 100.73 135.19 99.65"/></g><g style="isolation:isolate"><polygon points="74.95 152.76 78.6 148.47 78.55 175.79 74.92 172.4 74.95 152.76"/><polygon points="74.92 172.4 78.55 175.79 53.24 179.34 56.72 174.96 74.92 172.4"/><polygon points="56.08 174.6 55.49 174.28 55.52 154.65 56.11 154.97 56.08 174.6"/><polygon points="56.11 154.97 55.52 154.65 73.72 152.09 74.31 152.41 56.11 154.97"/><polygon points="75.54 153.09 75.5 172.72 57.31 175.28 57.35 155.64 75.54 153.09"/><polygon points="57.35 155.64 56.76 155.32 74.95 152.76 75.54 153.09 57.35 155.64"/><polygon points="57.31 175.28 56.72 174.96 56.76 155.32 57.35 155.64 57.31 175.28"/><polygon points="53.29 152.02 52.48 151.58 77.79 148.03 78.6 148.47 53.29 152.02"/><polygon points="56.76 155.32 53.29 152.02 78.6 148.47 74.95 152.76 56.76 155.32"/><polygon points="56.72 174.96 53.24 179.34 53.29 152.02 56.76 155.32 56.72 174.96"/><polygon points="53.24 179.34 52.43 178.9 52.48 151.58 53.29 152.02 53.24 179.34"/></g><g style="isolation:isolate"><g style="isolation:isolate"><g style="clip-path:url(#clip-path)"><g style="isolation:isolate"><path d="M156.93,422.4l-6.38-3.47a3.84,3.84,0,0,1-1.91-3.48l6.38,3.47a3.86,3.86,0,0,0,1.91,3.48" transform="translate(-51.51 -276.08)" style="fill:#bababa"/></g></g></g><g style="isolation:isolate"><g style="clip-path:url(#clip-path-2)"><g style="isolation:isolate"><path d="M159.18,392.36l-6.39-3.47.23,0,6.38,3.47-.22,0" transform="translate(-51.51 -276.08)" style="fill:#e0e0e0"/><path d="M159.4,392.33,153,388.86a4.27,4.27,0,0,1,.88,0l6.38,3.48a3.64,3.64,0,0,0-.88,0" transform="translate(-51.51 -276.08)" style="fill:#e8e8e8"/><path d="M160.28,392.37l-6.38-3.48a3.7,3.7,0,0,1,1.09.37l6.38,3.48a3.35,3.35,0,0,0-1.09-.37" transform="translate(-51.51 -276.08)" style="fill:#e0e0e0"/></g></g></g><polygon points="103.51 142.84 97.13 139.37 97.17 117.82 103.55 121.3 103.51 142.84" style="fill:#b3b3b3"/><g style="isolation:isolate"><g style="clip-path:url(#clip-path-3)"><g style="isolation:isolate"><path d="M155.06,397.37l-6.38-3.47a5.24,5.24,0,0,1,.67-2.52l6.38,3.47a5.24,5.24,0,0,0-.67,2.52" transform="translate(-51.51 -276.08)" style="fill:#bababa"/><path d="M155.73,394.85l-6.38-3.47a6.39,6.39,0,0,1,.5-.74l6.39,3.47a5.4,5.4,0,0,0-.51.74" transform="translate(-51.51 -276.08)" style="fill:#c2c2c2"/><path d="M156.24,394.11l-6.39-3.47a4.83,4.83,0,0,1,.53-.57l6.38,3.47a7,7,0,0,0-.52.57" transform="translate(-51.51 -276.08)" style="fill:#c9c9c9"/><path d="M156.76,393.54l-6.38-3.47a5.29,5.29,0,0,1,.59-.47l6.38,3.48a5,5,0,0,0-.59.46" transform="translate(-51.51 -276.08)" style="fill:#d1d1d1"/><path d="M157.35,393.08,151,389.6a4.68,4.68,0,0,1,.73-.4l6.38,3.47a4.39,4.39,0,0,0-.73.41" transform="translate(-51.51 -276.08)" style="fill:#d9d9d9"/><path d="M158.08,392.67l-6.38-3.47a4.12,4.12,0,0,1,1.09-.31l6.39,3.47a4.19,4.19,0,0,0-1.1.31" transform="translate(-51.51 -276.08)" style="fill:#e0e0e0"/></g></g></g><path d="M159.18,392.36a3.63,3.63,0,0,1,4.1,3.86l0,21.54a5.12,5.12,0,0,1-4.12,5,3.63,3.63,0,0,1-4.1-3.86l0-21.55A5.1,5.1,0,0,1,159.18,392.36Z" transform="translate(-51.51 -276.08)" style="fill:#d4d4d4"/></g><g style="isolation:isolate"><g style="isolation:isolate"><g style="clip-path:url(#clip-path-4)"><g style="isolation:isolate"><path d="M140,337.16l-6.38-3.47a1.66,1.66,0,0,1,.22,0l6.38,3.47-.22,0" transform="translate(-51.51 -276.08)" style="fill:#e0e0e0"/><path d="M140.19,337.13l-6.38-3.47a4.37,4.37,0,0,1,.89,0l6.38,3.48a3.75,3.75,0,0,0-.89,0" transform="translate(-51.51 -276.08)" style="fill:#e8e8e8"/><path d="M141.08,337.17l-6.38-3.48a3.63,3.63,0,0,1,1.08.37l6.39,3.48a3.2,3.2,0,0,0-1.09-.37" transform="translate(-51.51 -276.08)" style="fill:#e0e0e0"/></g></g></g><polygon points="68.5 63.89 62.11 60.41 82.08 57.61 88.46 61.08 68.5 63.89" style="fill:#e6e6e6"/><g style="isolation:isolate"><g style="clip-path:url(#clip-path-5)"><g style="isolation:isolate"><path d="M117.79,348.45,111.41,345a3.82,3.82,0,0,1-1.9-3.48,5.08,5.08,0,0,1,.67-2.52l6.38,3.47a5.21,5.21,0,0,0-.67,2.52,3.82,3.82,0,0,0,1.9,3.48" transform="translate(-51.51 -276.08)" style="fill:#bababa"/><path d="M116.56,342.45,110.18,339a4.58,4.58,0,0,1,.5-.74l6.38,3.47a5.33,5.33,0,0,0-.5.74" transform="translate(-51.51 -276.08)" style="fill:#c2c2c2"/><path d="M117.06,341.71l-6.38-3.47a5.56,5.56,0,0,1,.52-.56l6.39,3.47a4.68,4.68,0,0,0-.53.56" transform="translate(-51.51 -276.08)" style="fill:#c9c9c9"/><path d="M117.59,341.15l-6.39-3.47a5.29,5.29,0,0,1,.59-.47l6.38,3.47a5.18,5.18,0,0,0-.58.47" transform="translate(-51.51 -276.08)" style="fill:#d1d1d1"/><path d="M118.17,340.68l-6.38-3.47a4,4,0,0,1,.73-.4l6.38,3.47a5.18,5.18,0,0,0-.73.4" transform="translate(-51.51 -276.08)" style="fill:#d9d9d9"/><path d="M118.9,340.28l-6.38-3.47a3.86,3.86,0,0,1,1.1-.32L120,340a4.58,4.58,0,0,0-1.11.32" transform="translate(-51.51 -276.08)" style="fill:#e0e0e0"/></g></g></g><path d="M140,337.16a3.62,3.62,0,0,1,4.1,3.85,5.11,5.11,0,0,1-4.12,5l-20,2.8a3.61,3.61,0,0,1-4.1-3.85,5.09,5.09,0,0,1,4.12-5Z" transform="translate(-51.51 -276.08)" style="fill:#d4d4d4"/></g></svg>